<svg xmlns="http://www.w3.org/2000/svg" width="20.29" height="17.118" viewBox="0 0 20.29 17.118">
  <g id="love" transform="translate(0 -40.026)">
    <path id="Path_43814" data-name="Path 43814" d="M10.338,44.018a5.634,5.634,0,0,1,2.723.7.2.2,0,0,0,.195,0,5.644,5.644,0,0,1,4.718-.336.2.2,0,0,0,.262-.234A5.516,5.516,0,0,0,9.2,41.454a5.517,5.517,0,0,0-3.714-1.428c-5.186,0-9.17,7.256.015,13.239A.2.2,0,0,0,5.774,53C3.11,48.615,6.069,44.018,10.338,44.018Z" transform="translate(0)" fill="#fff"/>
    <path id="Path_43815" data-name="Path 43815" d="M164.451,173.472a4.362,4.362,0,0,0-5.2.324,4.343,4.343,0,0,0-2.82-1.033c-4,0-6.941,5.383-.712,9.9a17.518,17.518,0,0,0,3.419,1.916.636.636,0,0,0,.479,0,16.919,16.919,0,0,0,3.327-1.945,10.6,10.6,0,0,0,2.329-2.34c1.832-2.628,1.284-5.439-.818-6.816Z" transform="translate(-146.09 -127.477)" fill="#fff"/>
  </g>
</svg>
